<svg width="180" height="62" viewBox="0 0 180 62" fill="none" xmlns="http://www.w3.org/2000/svg">
<g filter="url(#filter0_d_539_362)">
<rect opacity="0.8" width="180" height="60.8696" rx="10" fill="url(#paint0_linear_539_362)"/>
<path d="M80.6854 36.9502H76.4842V46.3193H71.2108V20.7256H80.7206C83.744 20.7256 86.076 21.3994 87.7167 22.7471C89.3573 24.0947 90.1776 25.999 90.1776 28.46C90.1776 30.2061 89.7967 31.665 89.035 32.8369C88.285 33.9971 87.1424 34.9229 85.6073 35.6143L91.1444 46.0732V46.3193H85.4842L80.6854 36.9502ZM76.4842 32.6787H80.7382C82.0624 32.6787 83.0878 32.3447 83.8143 31.6768C84.5409 30.9971 84.9042 30.0654 84.9042 28.8818C84.9042 27.6748 84.5585 26.7256 83.8671 26.0342C83.1874 25.3428 82.1385 24.9971 80.7206 24.9971H76.4842V32.6787ZM103.491 39.1299L107.006 27.2998H112.455L104.809 49.2725L104.387 50.2744C103.25 52.7588 101.375 54.001 98.7621 54.001C98.0238 54.001 97.2738 53.8896 96.5121 53.667V49.8174L97.2855 49.835C98.2464 49.835 98.9613 49.6885 99.43 49.3955C99.9105 49.1025 100.285 48.6162 100.555 47.9365L101.153 46.3721L94.4906 27.2998H99.9574L103.491 39.1299ZM118.614 46.3193V31.0264H115.784V27.2998H118.614V25.6826C118.614 23.5498 119.223 21.8975 120.442 20.7256C121.673 19.542 123.389 18.9502 125.593 18.9502C126.296 18.9502 127.157 19.0674 128.177 19.3018L128.124 23.2393C127.702 23.1338 127.186 23.0811 126.577 23.0811C124.667 23.0811 123.712 23.9775 123.712 25.7705V27.2998H127.491V31.0264H123.712V46.3193H118.614ZM140.98 46.6709C138.191 46.6709 135.917 45.8154 134.159 44.1045C132.413 42.3936 131.54 40.1143 131.54 37.2666V36.7744C131.54 34.8643 131.909 33.1592 132.648 31.6592C133.386 30.1475 134.429 28.9873 135.777 28.1787C137.136 27.3584 138.683 26.9482 140.417 26.9482C143.019 26.9482 145.064 27.7686 146.552 29.4092C148.052 31.0498 148.802 33.376 148.802 36.3877V38.4619H136.691C136.855 39.7041 137.347 40.7002 138.167 41.4502C138.999 42.2002 140.048 42.5752 141.314 42.5752C143.271 42.5752 144.8 41.8662 145.902 40.4482L148.398 43.2432C147.636 44.3213 146.605 45.165 145.304 45.7744C144.003 46.3721 142.562 46.6709 140.98 46.6709ZM140.4 31.0615C139.392 31.0615 138.572 31.4014 137.939 32.0811C137.318 32.7607 136.919 33.7334 136.743 34.999H143.81V34.5947C143.786 33.4697 143.482 32.6025 142.896 31.9932C142.31 31.3721 141.478 31.0615 140.4 31.0615ZM164.91 32.0635C164.219 31.9697 163.609 31.9229 163.082 31.9229C161.16 31.9229 159.9 32.5732 159.303 33.874V46.3193H154.222V27.2998H159.021L159.162 29.5674C160.181 27.8213 161.594 26.9482 163.398 26.9482C163.961 26.9482 164.488 27.0244 164.98 27.1768L164.91 32.0635Z" fill="#F8F9F4"/>
<path d="M48.5 37.5L50 37V35.5L49.5 33.5H52.5V31.5L51.5 29L53 28.5V27L49.5 23L48 21.5L48.5 20L49 18L49.5 15L49 11C49 11 48.699 8.69903 48.5 8.5C48.301 8.30097 48 7 47.5 7C47 7 43.5 9 43.5 9C43.5 9 39.5 12 38 12C36.5 12 34.5 11.5 34 11.5H29.5C29 11.5 25 12 23.5 12C22 12 17.5 8.5 17.5 8.5C17.5 8.5 15.5 7 14.5 7C13.5 7 13 8.5 13 9V10.5C13 11 12.5 13.5 12.5 14C12.5 14.5 13 18.5 13 19C13 19.5 13.5 21 13.5 22C13.5 23 10.5 25.5 10 26C9.5 26.5 9 27.5 9 28C9 28.5 11 28.5 11 29C11 29.5 10.5 30.5 10 31.5C9.5 32.5 9.5 32.5 9.5 33C9.5 33.5 10.5 33 11 33C11.5 33 13 33 13 33.5C13 34 12 35.5 12 36C12 36.5 12 36.5 12.5 37C13 37.5 14 37 14.5 37C15 37 17.5 38 17.5 38C17.5 38 20.5 38.5 21.5 40.5C22.5 42.5 22.5 45.5 22.5 45.5C22.5 45.5 23.5 49.5 24.5 51C25.5 52.5 28 53.5 28.5 53.5H33.5C35 53.5 37.5 51.5 38 50.5C38.5 49.5 39 48 39.5 47C40 46 40 44.805 40 43.5C40 42.195 40.5 41 40.5 41C40.5 41 40.5 40 41.5 39C42.5 38 45 38 45 38L48.5 37.5Z" fill="white"/>
<path d="M18 30L15 34.5L16.5 35L19.5 36L22 37.5L24 39.5L24.5 43.5L25 47L26.5 49.5L28.5 51H32L34.5 50L36.5 48.5L37 47L37.5 44.5L38 42V40L39.5 38L41 37L44 35.5L47 34.5L46.5 34L45.5 32L44 30L42 28.5L39 27L35.5 28L33 31L32 34H30L29 31L27 28.5L24.5 27L21.5 27.5L18 30Z" fill="#4D4B4C"/>
<path d="M28.9451 46.0288C28.4451 46.0288 26.4451 46.5288 26.4451 47.0288C26.4451 47.5288 26.9451 48.5288 26.9451 48.5288C26.9451 48.5288 27.9451 50.0288 28.4451 50.0288H29.9451H31.9451C32.2004 50.0288 32.807 49.8506 33.4451 49.5288C34.0566 49.2204 34.7004 48.7735 34.9451 48.5288C35.4451 48.0288 35.4451 47.5288 35.4451 47.0288C35.4451 46.5288 32.5 46 32 46C31.5 46 29.4451 46.0288 28.9451 46.0288Z" fill="white"/>
<path d="M25 33L22.5 32L24 33.5C24.5 34 25 35 25.5 35.5C26 36 26.5 37 27 37C27.5 37 27 35 27 34.5C27 34 25 33 25 33Z" fill="white"/>
<path d="M35.8062 34.8901L34.8062 37.3901L36.3062 35.8901C36.8062 35.3901 37.8062 34.8901 38.3062 34.3901C38.8062 33.8901 39.8062 33.3901 39.8062 32.8901C39.8062 32.3901 37.8062 32.8901 37.3062 32.8901C36.8062 32.8901 35.8062 34.8901 35.8062 34.8901Z" fill="white"/>
<path d="M47 14.5C47 13.5 47 11.5 46.5 11.5C46 11.5 44.5 14 44.5 14C44.5 14 43 16.5 43 17C43 17.5 46 19.5 46.5 19.5C47 19.5 47 18.5 47 17.5V14.5Z" fill="#4D4B4C"/>
<path d="M15.9451 13.5288C15.9451 13.0288 15.9451 11.5288 16.4451 11.5288C16.9451 11.5288 16.9451 12.0288 17.4451 12.5288C17.9451 13.0288 18.9451 15.0288 18.9451 15.0288C18.9451 15.0288 19.4451 16.0288 19.4451 16.5288C19.4451 17.0288 17.4451 19.5288 16.9451 19.5288C16.4451 19.5288 15.9451 17.5288 15.9451 17.0288V13.5288Z" fill="#4D4B4C"/>
</g>
<defs>
<filter id="filter0_d_539_362" x="0" y="0" width="180" height="61.8696" filterUnits="userSpaceOnUse" color-interpolation-filters="sRGB">
<feFlood flood-opacity="0" result="BackgroundImageFix"/>
<feColorMatrix in="SourceAlpha" type="matrix" values="0 0 0 0 0 0 0 0 0 0 0 0 0 0 0 0 0 0 127 0" result="hardAlpha"/>
<feOffset dy="1"/>
<feColorMatrix type="matrix" values="0 0 0 0 0 0 0 0 0 0 0 0 0 0 0 0 0 0 0.1 0"/>
<feBlend mode="normal" in2="BackgroundImageFix" result="effect1_dropShadow_539_362"/>
<feBlend mode="normal" in="SourceGraphic" in2="effect1_dropShadow_539_362" result="shape"/>
</filter>
<linearGradient id="paint0_linear_539_362" x1="90" y1="0" x2="90" y2="60.8696" gradientUnits="userSpaceOnUse">
<stop/>
<stop offset="1" stop-color="#3A3838"/>
</linearGradient>
</defs>
</svg>
